# xmcd
#
# Track frame offsets:
#	150
#	12752
#	23890
#	34692
#	51152
#	63774
#	73803
#	92555
#	108294
#	124796
#	139460
#	162514
#
# Disc length: 2396 seconds
#
# Revision: 0
# Processed by: cddbd v1.5.1PL0 Copyright (c) Steve Scherf et al.
# Submitted via: audiograbber 1.83.01
#
DISCID=a0095a0c
DTITLE=Various Artist - Yesterday - El cine español
DYEAR=1900
DGENRE=
TTITLE0=Gloria Lasso - Luna de miel
TTITLE1=Conchita Velasco - Chica yé-yé
TTITLE2=Dúo Dinámico - Guardamarina soy
TTITLE3=Julio Iglesias - La vida sigue igual
TTITLE4=Bruno Lomas - Codo con codo
TTITLE5=Los Bravos - Los chicos con las chicas
TTITLE6=Burning - ¿Que hace una chica como tu en un lugar como este?
TTITLE7=Jeannette - ¿Por que te vas?
TTITLE8=Rocío Durcal y Jaime Morey - Acompáñame
TTITLE9=Joselito - Campanera
TTITLE10=Isabel Pantoja - Yo soy esa
TTITLE11=Sara Montiel - El relicario
EXTD=
EXTT0=
EXTT1=
EXTT2=
EXTT3=
EXTT4=
EXTT5=
EXTT6=
EXTT7=
EXTT8=
EXTT9=
EXTT10=
EXTT11=
PLAYORDER=
